<mxfile host="app.diagrams.net" modified="2023-04-06T10:22:29.219Z" agent="Mozilla/5.0 (Macintosh; Intel Mac OS X 10_15_7) AppleWebKit/605.1.15 (KHTML, like Gecko) Version/16.3 Safari/605.1.15" version="21.1.4" etag="A86A9s_2lse4qMuBbj6s" type="github">
  <diagram name="第 1 页" id="mDNSgoWZwm5WgbBvmoFB">
    <mxGraphModel>
      <root>
        <mxCell id="0" />
        <mxCell id="1" parent="0" />
      </root>
    </mxGraphModel>
  </diagram>
</mxfile>
